# Blender v2.79 (sub 0) OBJ File: ''
# www.blender.org
mtllib Table.mtl
o Cube
v 8.100000 -0.324000 -8.099999
v 8.100000 -0.324000 8.100000
v -8.100001 -0.324000 8.099998
v -8.099998 -0.324000 -8.100003
v 8.100004 0.324000 -8.099996
v 8.099995 0.324000 8.100005
v -8.100003 0.324000 8.099998
v -8.099999 0.324000 -8.100000
v 6.480003 0.324000 -6.479996
v 6.479996 0.324000 6.480004
v -6.480000 0.324000 -6.480000
v -6.480002 0.324000 6.479998
vt 0.348485 0.681818
vt 0.651515 0.681818
vt 0.651515 0.984848
vt 0.348485 0.984848
vt 0.015152 0.681818
vt 0.318182 0.681818
vt 0.287879 0.712121
vt 0.045455 0.712121
vt 0.318182 0.318182
vt 0.015152 0.318182
vt 0.015152 0.015152
vt 0.318182 0.015152
vt 0.348485 0.318182
vt 0.348485 0.015152
vt 0.651515 0.015152
vt 0.651515 0.318182
vt 0.318182 0.651515
vt 0.015152 0.651515
vt 0.015152 0.348485
vt 0.318182 0.348485
vt 0.681818 0.015152
vt 0.984848 0.015152
vt 0.984849 0.318182
vt 0.681818 0.318182
vt 0.653409 0.409091
vt 0.653409 0.651515
vt 0.410985 0.651515
vt 0.410985 0.409091
vt 0.318182 0.984848
vt 0.015152 0.984848
vt 0.045455 0.954545
vt 0.287879 0.954545
vn 0.0000 -1.0000 -0.0000
vn 0.0000 1.0000 -0.0000
vn 1.0000 0.0000 0.0000
vn -0.0000 -0.0000 1.0000
vn -1.0000 -0.0000 -0.0000
vn 0.0000 0.0000 -1.0000
usemtl Material
s off
f 1/1/1 2/2/1 3/3/1 4/4/1
f 6/5/2 5/6/2 9/7/2 10/8/2
f 1/9/3 5/10/3 6/11/3 2/12/3
f 2/13/4 6/14/4 7/15/4 3/16/4
f 3/17/5 7/18/5 8/19/5 4/20/5
f 5/21/6 1/22/6 4/23/6 8/24/6
f 9/25/2 11/26/2 12/27/2 10/28/2
f 8/29/2 7/30/2 12/31/2 11/32/2
f 5/6/2 8/29/2 11/32/2 9/7/2
f 7/30/2 6/5/2 10/8/2 12/31/2
